<?xml version="1.0" encoding="utf-8"?>
<!-- Generator: Adobe Illustrator 21.0.0, SVG Export Plug-In . SVG Version: 6.00 Build 0)  -->
<svg version="1.1" id="图层_1" xmlns="http://www.w3.org/2000/svg" xmlns:xlink="http://www.w3.org/1999/xlink" x="0px" y="0px"
	 viewBox="0 0 12 33" style="enable-background:new 0 0 12 33;" xml:space="preserve">
<style type="text/css">
	.st0{fill-rule:evenodd;clip-rule:evenodd;fill:#13F3F6;}
</style>
<g>
	<g>
		<path class="st0" d="M6,0C2.7,0,0,2.7,0,6c0,3.3,2.7,6,6,6s6-2.7,6-6C12,2.7,9.3,0,6,0z M6,15c-1.1,0-2,0.9-2,2s0.9,2,2,2
			s2-0.9,2-2S7.1,15,6,15z M6,22c-1.1,0-2,0.9-2,2s0.9,2,2,2s2-0.9,2-2S7.1,22,6,22z M6,29c-1.1,0-2,0.9-2,2s0.9,2,2,2s2-0.9,2-2
			S7.1,29,6,29z"/>
	</g>
</g>
</svg>
